<?xml version="1.0" standalone="no"?>
<!DOCTYPE svg PUBLIC "-//W3C//DTD SVG 20010904//EN"
 "http://www.w3.org/TR/2001/REC-SVG-20010904/DTD/svg10.dtd">
<svg version="1.0" xmlns="http://www.w3.org/2000/svg"
 width="70.000000pt" height="70.000000pt" viewBox="0 0 70.000000 70.000000"
 preserveAspectRatio="xMidYMid meet">
<metadata>
Created by potrace 1.14, written by Peter Selinger 2001-2017
</metadata>
<g transform="translate(0.000000,70.000000) scale(0.100000,-0.100000)"
fill="#000000" stroke="none">
<path d="M285 671 c-3 -6 -3 -16 1 -23 4 -6 8 -24 9 -40 2 -27 0 -28 -50 -28
-46 0 -55 -4 -88 -38 l-37 -38 0 -117 c0 -71 4 -117 10 -117 6 0 10 45 10 114
0 114 0 114 31 145 27 27 38 31 85 31 44 0 54 3 55 18 1 30 6 67 10 81 5 17
-26 27 -36 12z"/>
<path d="M367 633 c-3 -4 -3 -30 0 -58 l5 -50 48 1 c77 2 89 -17 91 -149 1
-59 5 -107 10 -107 5 0 9 51 9 114 l0 113 -30 25 c-23 19 -40 24 -71 22 l-40
-2 3 45 c2 29 -1 48 -9 50 -6 2 -13 0 -16 -4z m23 -13 c0 -5 -5 -10 -11 -10
-5 0 -7 5 -4 10 3 6 8 10 11 10 2 0 4 -4 4 -10z"/>
<path d="M332 598 c0 -18 0 -38 -1 -43 -1 -6 -28 -11 -60 -11 -50 -1 -63 -5
-85 -27 -21 -21 -26 -36 -26 -76 0 -27 5 -53 10 -56 6 -4 10 14 10 48 0 73 20
92 104 93 l61 1 3 51 c2 29 -1 52 -6 52 -5 0 -10 -15 -10 -32z"/>
<path d="M405 570 c3 -5 24 -10 45 -10 29 0 47 -7 70 -29 31 -28 32 -30 29
-107 -3 -65 -1 -79 12 -82 14 -2 15 9 11 80 -4 79 -6 85 -40 121 -32 33 -42
37 -85 37 -29 0 -46 -4 -42 -10z"/>
<path d="M218 489 c-15 -8 -26 -49 -14 -49 16 0 36 14 36 26 0 9 11 14 30 14
l31 0 -3 -147 -3 -148 -41 -1 c-66 -1 -77 13 -73 93 3 55 1 68 -11 68 -12 0
-14 -13 -11 -70 4 -93 15 -105 98 -105 l63 0 0 165 0 165 -42 0 c-24 0 -51 -5
-60 -11z m12 -23 c0 -3 -4 -8 -10 -11 -5 -3 -10 -1 -10 4 0 6 5 11 10 11 6 0
10 -2 10 -4z m-55 -136 c3 -5 1 -10 -4 -10 -6 0 -11 5 -11 10 0 6 2 10 4 10 3
0 8 -4 11 -10z"/>
<path d="M370 335 l0 -165 58 0 c45 0 63 5 86 23 17 14 26 29 22 35 -12 19
-36 14 -36 -7 0 -24 -9 -30 -51 -35 -59 -7 -59 -7 -59 150 l0 144 29 0 c20 0
30 -6 34 -20 6 -22 37 -18 37 6 0 20 -33 34 -79 34 l-41 0 0 -165z m110 135
c0 -5 -5 -10 -11 -10 -5 0 -7 5 -4 10 3 6 8 10 11 10 2 0 4 -4 4 -10z m50
-250 c0 -5 -4 -10 -10 -10 -5 0 -10 5 -10 10 0 6 5 10 10 10 6 0 10 -4 10 -10z"/>
<path d="M206 328 c1 -58 5 -83 14 -83 18 0 17 159 -1 163 -11 2 -14 -16 -13
-80z"/>
<path d="M458 404 c-4 -3 -3 -18 1 -32 4 -15 6 -51 4 -79 -2 -37 1 -53 10 -53
8 0 12 24 12 85 0 78 -7 99 -27 79z"/>
<path d="M550 237 c0 -86 -20 -106 -110 -109 -70 -3 -82 -13 -72 -65 5 -27 19
-31 19 -6 0 53 0 53 61 53 50 0 61 4 90 31 30 28 32 35 32 95 0 36 -4 64 -10
64 -6 0 -10 -28 -10 -63z"/>
<path d="M121 231 c-19 -12 -4 -54 32 -89 27 -26 41 -31 92 -34 52 -3 60 -6
61 -23 1 -11 2 -26 3 -33 1 -7 4 -11 9 -9 6 4 8 43 3 76 0 5 -28 9 -62 9 -52
-1 -65 3 -90 25 -23 20 -28 31 -24 50 7 27 -4 40 -24 28z"/>
<path d="M339 143 c0 -7 -1 -29 -1 -48 0 -51 1 -55 10 -55 5 0 9 17 9 38 0 20
1 43 2 50 1 8 19 12 56 12 30 0 55 4 55 9 0 14 -130 8 -131 -6z"/>
</g>
</svg>
