<svg width="41" height="41" viewBox="0 0 41 41" fill="none" xmlns="http://www.w3.org/2000/svg">
<g clip-path="url(#clip0_238_96)">
<path fill-rule="evenodd" clip-rule="evenodd" d="M39.9923 10.1024C40.2732 9.17835 39.9923 8.49805 38.6469 8.49805H34.2046C33.0741 8.49805 32.5529 9.08528 32.2703 9.73343C32.2703 9.73343 30.0111 15.142 26.8109 18.6553C25.7752 19.674 25.3048 19.9973 24.7395 19.9973C24.4569 19.9973 24.0321 19.674 24.0321 18.7484V10.1024C24.0321 8.9922 23.7208 8.49805 22.7798 8.49805H15.794C15.0883 8.49805 14.6635 9.01251 14.6635 9.50159C14.6635 10.5525 16.2644 10.7962 16.4286 13.7544V20.1817C16.4286 21.5914 16.1697 21.847 15.6044 21.847C14.0983 21.847 10.4344 16.413 8.25983 10.1954C7.83845 8.98543 7.41199 8.49805 6.27645 8.49805H1.83076C0.561524 8.49805 0.307678 9.08528 0.307678 9.73343C0.307678 10.8876 1.81383 16.6211 7.32229 24.2044C10.9946 29.3828 16.1646 32.1904 20.8743 32.1904C23.6988 32.1904 24.0474 31.5676 24.0474 30.493V26.5787C24.0474 25.3314 24.3148 25.0827 25.21 25.0827C25.87 25.0827 26.9988 25.4076 29.6354 27.9037C32.6477 30.8636 33.1435 32.1904 34.8392 32.1904H39.2815C40.5508 32.1904 41.1871 31.5676 40.8215 30.3356C40.4188 29.1104 38.9803 27.3317 37.0731 25.2214C36.0374 24.0199 34.4838 22.7253 34.0117 22.0771C33.3534 21.2462 33.5412 20.8756 34.0117 20.136C34.0117 20.136 39.4271 12.6459 39.9906 10.1024H39.9923Z" fill="#232D3F"/>
</g>
<defs>
<clipPath id="clip0_238_96">
<rect width="40.6154" height="40.6154" fill="white" transform="translate(0.307617 0.0361328)"/>
</clipPath>
</defs>
</svg>
