<svg width="1659" height="447" viewBox="0 0 1659 447" fill="none" xmlns="http://www.w3.org/2000/svg">
<g clip-path="url(#clip0_272_563)">
<path d="M1500 322.071C1573.57 322.071 1619.49 188.825 1619.49 121.643C1619.49 54.4615 1559.85 0 1486.28 0C1412.71 0 1353.07 54.4615 1353.07 121.643C1353.07 122.723 1353.09 123.819 1353.12 124.932L1353.06 124.932C1297.45 124.932 1251.66 163.31 1245.71 212.644C1219.03 192.753 1184.96 180.822 1147.84 180.822C1068.95 180.822 1003.84 234.707 994.244 304.369C977.61 285.067 950.304 272.478 919.439 272.478C877.363 272.478 841.902 295.873 831.072 327.777C823.911 318.436 812.039 312.327 798.604 312.327C776.731 312.327 759 328.518 759 348.491C759 368.464 776.731 384.655 798.604 384.655C812.098 384.655 824.015 378.493 831.166 369.083C842.105 400.846 877.484 424.108 919.439 424.108C937.254 424.108 953.883 419.914 967.959 412.655C974.786 417.758 983.514 420.819 993.025 420.819C1005.6 420.819 1016.81 415.466 1024.06 407.118C1052.31 441.395 1107.4 420.819 1158 420.819C1243.5 420.819 1302.66 400.267 1302.66 322.191C1302.66 318.277 1302.48 314.399 1302.14 310.565C1317.31 317.984 1334.65 322.191 1353.06 322.191C1385.04 322.191 1413.77 309.502 1433.55 289.337C1454.21 309.155 1477.09 322.071 1500 322.071Z" fill="#CBD6E8"/>
<path d="M1315.57 179C1356.53 179 1393.32 196.391 1418.61 224.018C1432.95 197.261 1461.67 179 1494.75 179C1533.38 179 1566.06 203.892 1576.84 238.133C1580.5 237.564 1584.25 237.269 1588.07 237.269C1627.25 237.269 1662 269 1659 306.465V319V447.112H617.428C630.402 430.786 650.7 420.278 673.513 420.278C693.879 420.278 712.241 428.652 725.176 442.065C730.952 429.237 744.089 420.278 759.371 420.278C759.371 374.016 797.81 336.514 845.227 336.514C891.797 336.514 929.707 372.688 931.048 417.805C946.085 405.159 965.666 397.512 987.077 397.512C1006.38 397.512 1024.19 403.725 1038.53 414.213C1047.23 385.603 1074.38 364.735 1106.53 364.735C1118.73 364.735 1130.2 367.737 1140.23 373.026C1141.61 354.143 1157.75 339.243 1177.46 339.243C1178.29 339.243 1179.12 339.27 1179.94 339.322C1178.31 331.043 1177.46 322.494 1177.46 313.75C1177.46 239.33 1239.29 179 1315.57 179Z" fill="white"/>
<path d="M617.428 447.112H0V299.5C118.72 262.655 177.012 306.549 196.601 340.565C208.509 305.928 242.048 280.972 281.56 280.972C327.812 280.972 365.877 315.166 370.646 359.056C395.93 327.594 435.247 307.378 479.403 307.378C555.683 307.378 617.52 367.708 617.52 442.128C617.52 443.797 617.489 445.458 617.428 447.112Z" fill="white"/>
</g>
<defs>
<clipPath id="clip0_272_563">
<rect width="1659" height="447" fill="white"/>
</clipPath>
</defs>
</svg>
