<svg width="41" height="42" viewBox="0 0 41 42" fill="none" xmlns="http://www.w3.org/2000/svg">
<g clip-path="url(#clip0_238_89)">
<path fill-rule="evenodd" clip-rule="evenodd" d="M33.508 8.06108C33.9242 7.88594 34.3796 7.82554 34.827 7.88615C35.2744 7.94677 35.6973 8.12619 36.0518 8.40574C36.4063 8.68529 36.6795 9.05475 36.8427 9.47567C37.006 9.89658 37.0535 10.3536 36.9802 10.7991L33.1612 33.9641C32.7907 36.1986 30.339 37.48 28.2897 36.3669C26.5755 35.4358 24.0295 34.0011 21.7395 32.5041C20.5944 31.7548 17.0869 29.3553 17.518 27.6479C17.8884 26.188 23.782 20.7019 27.1497 17.4402C28.4716 16.1588 27.8688 15.4196 26.3078 16.5983C22.4298 19.5249 16.2079 23.9753 14.1503 25.2281C12.335 26.3328 11.3887 26.5214 10.2571 26.3328C8.19272 25.9893 6.27816 25.4572 4.71553 24.8089C2.60395 23.9332 2.70667 21.0303 4.71384 20.1849L33.508 8.06108Z" fill="#232D3F"/>
</g>
<defs>
<clipPath id="clip0_238_89">
<rect width="40.4129" height="40.4129" fill="white" transform="translate(0.206055 0.601562)"/>
</clipPath>
</defs>
</svg>
